{"title":"Wonder Woman 2017 HDCM x264 AAC { TaRa }.mkv","magnet":"magnet:?xt=urn:btih:dc418cec089db1511acaa30f724db5a2dde2b43e&dn=Wonder+Woman+2017+HDCM+x264+AAC+%7B+TaRa+%7D.mkv&tr=udp%3A%2F%2Ftracker.leechers-paradise.org%3A6969&tr=udp%3A%2F%2Fzer0day.ch%3A1337&tr=udp%3A%2F%2Fopen.demonii.com%3A1337&tr=udp%3A%2F%2Ftracker.coppersurfer.tk%3A6969&tr=udp%3A%2F%2Fexodus.desync.com%3A6969","uploader":"SkTaRa","categoryP":"video","categoryS":"movies","size":"795474380","seeders":"127","leechers":"103","description":"===================================================================\r\nGeneral\r\nComplete name               : Wonder Woman 2017 HDCM x264 AAC { TaRa }.mkv\r\nFormat                      : Matroska\r\nFormat version              : Version 4 / Version 2\r\nFile size                   : 759 MiB\r\nDuration                    : 2h 10mn\r\nOverall bit rate            : 812 Kbps\r\n===================================================================\r\nVideo\r\nID                          : 1\r\nFormat                      : AVC\r\nFormat/Info                 : Advanced Video Codec\r\nFormat profile              : <a class=\"__cf_email__\" href=\"/cdn-cgi/l/email-protection\" data-cfemail=\"e5ad8c828da5a9d1cbd4\">[email&#xA0;protected]</a><script data-cfhash=\"f9e31\" type=\"text/javascript\">/* <![CDATA[ */!function(t,e,r,n,c,a,p){try{t=document.currentScript||function(){for(t=document.getElementsByTagName('script'),e=t.length;e--;)if(t[e].getAttribute('data-cfhash'))return t[e]}();if(t&&(c=t.previousSibling)){p=t.parentNode;if(a=c.getAttribute('data-cfemail')){for(e='',r='0x'+a.substr(0,2)|0,n=2;a.length-n;n+=2)e+='%'+('0'+('0x'+a.substr(n,2)^r).toString(16)).slice(-2);p.replaceChild(document.createTextNode(decodeURIComponent(e)),c)}p.removeChild(t)}}catch(u){}}()/* ]]> */</script>\r\nFormat settings, CABAC      : Yes\r\nFormat settings, ReFrames   : 8 frames\r\nCodec ID                    : V_MPEG4/ISO/AVC\r\nDuration                    : 2h 10mn\r\nBit rate                    : 684 Kbps\r\nWidth                       : 640 pixels\r\nHeight                      : 272 pixels\r\nDisplay aspect ratio        : 2.35:1\r\nFrame rate mode             : Constant\r\nFrame rate                  : 30.167 fps\r\nColor space                 : YUV\r\nChroma subsampling          : 4:2:0\r\nBit depth                   : 8 bits\r\nScan type                   : Progressive\r\nBits/(Pixel*Frame)          : 0.130\r\nStream size                 : 639 MiB (84%)\r\nTitle                       : .....::::: TaRa :::::.....\r\nLanguage                    : English\r\nDefault                     : Yes\r\nForced                      : No\r\n===================================================================\r\nAudio\r\nID                          : 2\r\nFormat                      : AAC\r\nFormat/Info                 : Advanced Audio Codec\r\nFormat profile              : LC\r\nCodec ID                    : A_AAC\r\nDuration                    : 2h 10mn\r\nBit rate                    : 126 Kbps\r\nChannel(s)                  : 2 channels\r\nChannel positions           : Front: L R\r\nSampling rate               : 44.1 KHz\r\nFrame rate                  : 43.066 fps (1024 spf)\r\nCompression mode            : Lossy\r\nStream size                 : 117 MiB (15%)\r\nTitle                       : .....::::: TaRa :::::.....\r\nLanguage                    : English\r\nDefault                     : Yes\r\nForced                      : No\r\n=================================================================== <a href=\"\nhttps://www.jiopic.com/image/Xv3yP\" rel=\"nofollow\" target=\"_NEW\">\nhttps://www.jiopic.com/image/Xv3yP</a> <a href=\"\nhttps://www.jiopic.com/image/XlfXi\" rel=\"nofollow\" target=\"_NEW\">\nhttps://www.jiopic.com/image/XlfXi</a> <a href=\"\nhttps://www.jiopic.com/image/XlyqF\" rel=\"nofollow\" target=\"_NEW\">\nhttps://www.jiopic.com/image/XlyqF</a> <a href=\"\nhttps://www.jiopic.com/image/Xl6Pt\" rel=\"nofollow\" target=\"_NEW\">\nhttps://www.jiopic.com/image/Xl6Pt</a> <a href=\"\nhttps://www.jiopic.com/image/Xll9z\" rel=\"nofollow\" target=\"_NEW\">\nhttps://www.jiopic.com/image/Xll9z</a> <a href=\"\nhttps://www.jiopic.com/image/XlpZv\" rel=\"nofollow\" target=\"_NEW\">\nhttps://www.jiopic.com/image/XlpZv</a> <a href=\"\nhttps://www.jiopic.com/image/Xl9y1\" rel=\"nofollow\" target=\"_NEW\">\nhttps://www.jiopic.com/image/Xl9y1</a> <a href=\"\nhttps://www.jiopic.com/image/XlrDD\" rel=\"nofollow\" target=\"_NEW\">\nhttps://www.jiopic.com/image/XlrDD</a> <a href=\"\nhttps://www.jiopic.com/image/Xlasf\" rel=\"nofollow\" target=\"_NEW\">\nhttps://www.jiopic.com/image/Xlasf</a> <a href=\"\nhttps://www.jiopic.com/image/XlbEQ\" rel=\"nofollow\" target=\"_NEW\">\nhttps://www.jiopic.com/image/XlbEQ</a> <a href=\"\nhttps://www.jiopic.com/image/XvXXn\" rel=\"nofollow\" target=\"_NEW\">\nhttps://www.jiopic.com/image/XvXXn</a> <a href=\"\nhttps://www.jiopic.com/image/XvYAN\" rel=\"nofollow\" target=\"_NEW\">\nhttps://www.jiopic.com/image/XvYAN</a> <a href=\"\nhttps://www.jiopic.com/image/Xlwhj\" rel=\"nofollow\" target=\"_NEW\">\nhttps://www.jiopic.com/image/Xlwhj</a> <a href=\"\nhttps://www.jiopic.com/image/XvkdY\" rel=\"nofollow\" target=\"_NEW\">\nhttps://www.jiopic.com/image/XvkdY</a> <a href=\"\nhttps://www.jiopic.com/image/XvS9G\" rel=\"nofollow\" target=\"_NEW\">\nhttps://www.jiopic.com/image/XvS9G</a> <a href=\"\nhttps://www.jiopic.com/image/XvsDb\" rel=\"nofollow\" target=\"_NEW\">\nhttps://www.jiopic.com/image/XvsDb</a> <a href=\"\nhttps://www.jiopic.com/image/XvjzA\" rel=\"nofollow\" target=\"_NEW\">\nhttps://www.jiopic.com/image/XvjzA</a>","last_updated":"2017-06-07T12:04:39.886Z","parsed":{"xt":"urn:btih:dc418cec089db1511acaa30f724db5a2dde2b43e","dn":"Wonder Woman 2017 HDCM x264 AAC { TaRa }.mkv","tr":["udp://exodus.desync.com:6969","udp://open.demonii.com:1337","udp://tracker.coppersurfer.tk:6969","udp://tracker.leechers-paradise.org:6969","udp://zer0day.ch:1337"],"infoHash":"dc418cec089db1511acaa30f724db5a2dde2b43e","infoHashBuffer":{"type":"Buffer","data":[220,65,140,236,8,157,177,81,26,202,163,15,114,77,181,162,221,226,180,62]},"name":"Wonder Woman 2017 HDCM x264 AAC { TaRa }.mkv","announce":["udp://exodus.desync.com:6969","udp://open.demonii.com:1337","udp://tracker.coppersurfer.tk:6969","udp://tracker.leechers-paradise.org:6969","udp://zer0day.ch:1337"],"urlList":[]}}